<svg xmlns="http://www.w3.org/2000/svg" xmlns:xlink="http://www.w3.org/1999/xlink" width="2000" zoomAndPan="magnify" viewBox="0 0 1500 1499.999933" height="2000" preserveAspectRatio="xMidYMid meet" version="1.0"><defs><g/><clipPath id="20e3f31a22"><path d="M 169 626 L 420 626 L 420 877 L 169 877 Z M 169 626 " clip-rule="nonzero"/></clipPath><clipPath id="ff5ba5505c"><path d="M 257.878906 876.808594 C 252.277344 876.808594 247.734375 872.261719 247.734375 866.660156 L 247.734375 839.335938 C 247.734375 803.484375 261.695312 769.773438 287.050781 744.421875 C 308.570312 722.898438 320.417969 694.289062 320.417969 663.851562 L 320.417969 646.6875 L 268.023438 646.6875 L 268.023438 672.667969 C 268.023438 701.742188 244.367188 725.398438 215.289062 725.398438 L 189.304688 725.398438 L 189.304688 777.792969 L 221.757812 777.792969 C 227.359375 777.792969 231.90625 782.339844 231.90625 787.941406 C 231.90625 793.542969 227.359375 798.085938 221.757812 798.085938 L 179.15625 798.085938 C 173.554688 798.085938 169.011719 793.542969 169.011719 787.941406 L 169.011719 715.253906 C 169.011719 709.652344 173.554688 705.109375 179.15625 705.109375 L 215.289062 705.109375 C 233.175781 705.109375 247.734375 690.550781 247.734375 672.667969 L 247.734375 636.542969 C 247.734375 630.941406 252.277344 626.398438 257.878906 626.398438 L 330.566406 626.398438 C 336.167969 626.398438 340.710938 630.941406 340.710938 636.542969 L 340.710938 663.855469 C 340.710938 699.714844 326.746094 733.417969 301.398438 758.773438 C 279.878906 780.292969 268.03125 808.910156 268.03125 839.34375 L 268.03125 856.519531 L 320.425781 856.519531 L 320.425781 830.53125 C 320.425781 801.457031 344.082031 777.792969 373.160156 777.792969 L 399.136719 777.792969 L 399.136719 725.398438 L 366.683594 725.398438 C 361.082031 725.398438 356.539062 720.859375 356.539062 715.253906 C 356.539062 709.644531 361.082031 705.109375 366.683594 705.109375 L 409.277344 705.109375 C 414.878906 705.109375 419.421875 709.652344 419.421875 715.253906 L 419.421875 787.941406 C 419.421875 793.542969 414.878906 798.085938 409.277344 798.085938 L 373.15625 798.085938 C 355.269531 798.085938 340.710938 812.644531 340.710938 830.53125 L 340.710938 866.660156 C 340.710938 872.261719 336.167969 876.808594 330.566406 876.808594 Z M 257.878906 876.808594 " clip-rule="nonzero"/></clipPath><linearGradient x1="-0.155456" gradientTransform="matrix(-228.39338, 119.700145, -119.700145, -228.39338, 408.416975, 691.753179)" y1="0" x2="1.155477" gradientUnits="userSpaceOnUse" y2="0" id="4b2dbeaefa"><stop stop-opacity="1" stop-color="rgb(95.289612%, 7.839966%, 47.839355%)" offset="0"/><stop stop-opacity="1" stop-color="rgb(95.289612%, 7.839966%, 47.839355%)" offset="0.0625"/><stop stop-opacity="1" stop-color="rgb(95.289612%, 7.839966%, 47.839355%)" offset="0.09375"/><stop stop-opacity="1" stop-color="rgb(95.289612%, 7.839966%, 47.839355%)" offset="0.109375"/><stop stop-opacity="1" stop-color="rgb(95.289612%, 7.839966%, 47.839355%)" offset="0.117187"/><stop stop-opacity="1" stop-color="rgb(94.889832%, 8.062744%, 48.210144%)" offset="0.121094"/><stop stop-opacity="1" stop-color="rgb(94.490051%, 8.287048%, 48.582458%)" offset="0.125"/><stop stop-opacity="1" stop-color="rgb(94.003296%, 8.558655%, 49.035645%)" offset="0.128906"/><stop stop-opacity="1" stop-color="rgb(93.516541%, 8.831787%, 49.488831%)" offset="0.132812"/><stop stop-opacity="1" stop-color="rgb(93.029785%, 9.103394%, 49.940491%)" offset="0.136719"/><stop stop-opacity="1" stop-color="rgb(92.54303%, 9.376526%, 50.393677%)" offset="0.140625"/><stop stop-opacity="1" stop-color="rgb(92.056274%, 9.648132%, 50.845337%)" offset="0.144531"/><stop stop-opacity="1" stop-color="rgb(91.569519%, 9.921265%, 51.298523%)" offset="0.148437"/><stop stop-opacity="1" stop-color="rgb(91.082764%, 10.192871%, 51.751709%)" offset="0.152344"/><stop stop-opacity="1" stop-color="rgb(90.596008%, 10.466003%, 52.204895%)" offset="0.15625"/><stop stop-opacity="1" stop-color="rgb(90.109253%, 10.73761%, 52.656555%)" offset="0.160156"/><stop stop-opacity="1" stop-color="rgb(89.624023%, 11.010742%, 53.109741%)" offset="0.164062"/><stop stop-opacity="1" stop-color="rgb(89.137268%, 11.282349%, 53.562927%)" offset="0.167969"/><stop stop-opacity="1" stop-color="rgb(88.650513%, 11.555481%, 54.016113%)" offset="0.171875"/><stop stop-opacity="1" stop-color="rgb(88.163757%, 11.827087%, 54.467773%)" offset="0.175781"/><stop stop-opacity="1" stop-color="rgb(87.677002%, 12.10022%, 54.920959%)" offset="0.179687"/><stop stop-opacity="1" stop-color="rgb(87.190247%, 12.371826%, 55.37262%)" offset="0.183594"/><stop stop-opacity="1" stop-color="rgb(86.703491%, 12.644958%, 55.825806%)" offset="0.1875"/><stop stop-opacity="1" stop-color="rgb(86.216736%, 12.916565%, 56.278992%)" offset="0.191406"/><stop stop-opacity="1" stop-color="rgb(85.72998%, 13.189697%, 56.732178%)" offset="0.195312"/><stop stop-opacity="1" stop-color="rgb(85.243225%, 13.461304%, 57.183838%)" offset="0.199219"/><stop stop-opacity="1" stop-color="rgb(84.75647%, 13.734436%, 57.637024%)" offset="0.203125"/><stop stop-opacity="1" stop-color="rgb(84.269714%, 14.006042%, 58.088684%)" offset="0.207031"/><stop stop-opacity="1" stop-color="rgb(83.782959%, 14.279175%, 58.54187%)" offset="0.210938"/><stop stop-opacity="1" stop-color="rgb(83.296204%, 14.550781%, 58.995056%)" offset="0.214844"/><stop stop-opacity="1" stop-color="rgb(82.810974%, 14.823914%, 59.448242%)" offset="0.21875"/><stop stop-opacity="1" stop-color="rgb(82.324219%, 15.09552%, 59.899902%)" offset="0.222656"/><stop stop-opacity="1" stop-color="rgb(81.837463%, 15.367126%, 60.353088%)" offset="0.226562"/><stop stop-opacity="1" stop-color="rgb(81.350708%, 15.638733%, 60.806274%)" offset="0.230469"/><stop stop-opacity="1" stop-color="rgb(80.863953%, 15.911865%, 61.25946%)" offset="0.234375"/><stop stop-opacity="1" stop-color="rgb(80.377197%, 16.183472%, 61.711121%)" offset="0.238281"/><stop stop-opacity="1" stop-color="rgb(79.890442%, 16.456604%, 62.164307%)" offset="0.242187"/><stop stop-opacity="1" stop-color="rgb(79.403687%, 16.72821%, 62.615967%)" offset="0.246094"/><stop stop-opacity="1" stop-color="rgb(78.916931%, 17.001343%, 63.069153%)" offset="0.25"/><stop stop-opacity="1" stop-color="rgb(78.430176%, 17.272949%, 63.522339%)" offset="0.253906"/><stop stop-opacity="1" stop-color="rgb(77.94342%, 17.546082%, 63.975525%)" offset="0.257812"/><stop stop-opacity="1" stop-color="rgb(77.456665%, 17.817688%, 64.427185%)" offset="0.261719"/><stop stop-opacity="1" stop-color="rgb(76.96991%, 18.09082%, 64.880371%)" offset="0.265625"/><stop stop-opacity="1" stop-color="rgb(76.483154%, 18.362427%, 65.333557%)" offset="0.269531"/><stop stop-opacity="1" stop-color="rgb(75.997925%, 18.635559%, 65.786743%)" offset="0.273437"/><stop stop-opacity="1" stop-color="rgb(75.511169%, 18.907166%, 66.238403%)" offset="0.277344"/><stop stop-opacity="1" stop-color="rgb(75.024414%, 19.180298%, 66.691589%)" offset="0.28125"/><stop stop-opacity="1" stop-color="rgb(74.537659%, 19.451904%, 67.14325%)" offset="0.285156"/><stop stop-opacity="1" stop-color="rgb(74.050903%, 19.725037%, 67.596436%)" offset="0.289062"/><stop stop-opacity="1" stop-color="rgb(73.564148%, 19.996643%, 68.049622%)" offset="0.292969"/><stop stop-opacity="1" stop-color="rgb(73.077393%, 20.269775%, 68.502808%)" offset="0.296875"/><stop stop-opacity="1" stop-color="rgb(72.590637%, 20.541382%, 68.954468%)" offset="0.300781"/><stop stop-opacity="1" stop-color="rgb(72.103882%, 20.814514%, 69.407654%)" offset="0.304687"/><stop stop-opacity="1" stop-color="rgb(71.617126%, 21.086121%, 69.859314%)" offset="0.308594"/><stop stop-opacity="1" stop-color="rgb(71.130371%, 21.359253%, 70.3125%)" offset="0.3125"/><stop stop-opacity="1" stop-color="rgb(70.643616%, 21.630859%, 70.765686%)" offset="0.316406"/><stop stop-opacity="1" stop-color="rgb(70.15686%, 21.903992%, 71.218872%)" offset="0.320312"/><stop stop-opacity="1" stop-color="rgb(69.670105%, 22.175598%, 71.670532%)" offset="0.324219"/><stop stop-opacity="1" stop-color="rgb(69.18335%, 22.44873%, 72.123718%)" offset="0.328125"/><stop stop-opacity="1" stop-color="rgb(68.696594%, 22.720337%, 72.576904%)" offset="0.332031"/><stop stop-opacity="1" stop-color="rgb(68.211365%, 22.993469%, 73.03009%)" offset="0.335937"/><stop stop-opacity="1" stop-color="rgb(67.724609%, 23.265076%, 73.48175%)" offset="0.339844"/><stop stop-opacity="1" stop-color="rgb(67.237854%, 23.538208%, 73.934937%)" offset="0.34375"/><stop stop-opacity="1" stop-color="rgb(66.751099%, 23.809814%, 74.386597%)" offset="0.347656"/><stop stop-opacity="1" stop-color="rgb(66.264343%, 24.082947%, 74.839783%)" offset="0.351562"/><stop stop-opacity="1" stop-color="rgb(65.777588%, 24.354553%, 75.292969%)" offset="0.355469"/><stop stop-opacity="1" stop-color="rgb(65.290833%, 24.627686%, 75.746155%)" offset="0.359375"/><stop stop-opacity="1" stop-color="rgb(64.804077%, 24.899292%, 76.197815%)" offset="0.363281"/><stop stop-opacity="1" stop-color="rgb(64.317322%, 25.172424%, 76.651001%)" offset="0.367187"/><stop stop-opacity="1" stop-color="rgb(63.830566%, 25.444031%, 77.102661%)" offset="0.371094"/><stop stop-opacity="1" stop-color="rgb(63.343811%, 25.717163%, 77.555847%)" offset="0.375"/><stop stop-opacity="1" stop-color="rgb(62.857056%, 25.98877%, 78.009033%)" offset="0.378906"/><stop stop-opacity="1" stop-color="rgb(62.3703%, 26.261902%, 78.462219%)" offset="0.382812"/><stop stop-opacity="1" stop-color="rgb(61.883545%, 26.533508%, 78.913879%)" offset="0.386719"/><stop stop-opacity="1" stop-color="rgb(61.398315%, 26.806641%, 79.367065%)" offset="0.390625"/><stop stop-opacity="1" stop-color="rgb(60.91156%, 27.078247%, 79.820251%)" offset="0.394531"/><stop stop-opacity="1" stop-color="rgb(60.424805%, 27.351379%, 80.273438%)" offset="0.398437"/><stop stop-opacity="1" stop-color="rgb(59.938049%, 27.622986%, 80.725098%)" offset="0.402344"/><stop stop-opacity="1" stop-color="rgb(59.451294%, 27.896118%, 81.178284%)" offset="0.40625"/><stop stop-opacity="1" stop-color="rgb(58.964539%, 28.167725%, 81.629944%)" offset="0.410156"/><stop stop-opacity="1" stop-color="rgb(58.477783%, 28.440857%, 82.08313%)" offset="0.414062"/><stop stop-opacity="1" stop-color="rgb(57.991028%, 28.712463%, 82.536316%)" offset="0.417969"/><stop stop-opacity="1" stop-color="rgb(57.504272%, 28.985596%, 82.989502%)" offset="0.421875"/><stop stop-opacity="1" stop-color="rgb(57.017517%, 29.257202%, 83.441162%)" offset="0.425781"/><stop stop-opacity="1" stop-color="rgb(56.530762%, 29.530334%, 83.894348%)" offset="0.429687"/><stop stop-opacity="1" stop-color="rgb(56.044006%, 29.801941%, 84.347534%)" offset="0.433594"/><stop stop-opacity="1" stop-color="rgb(55.557251%, 30.075073%, 84.80072%)" offset="0.4375"/><stop stop-opacity="1" stop-color="rgb(55.070496%, 30.34668%, 85.25238%)" offset="0.441406"/><stop stop-opacity="1" stop-color="rgb(54.58374%, 30.619812%, 85.705566%)" offset="0.445312"/><stop stop-opacity="1" stop-color="rgb(54.096985%, 30.891418%, 86.157227%)" offset="0.449219"/><stop stop-opacity="1" stop-color="rgb(53.611755%, 31.164551%, 86.610413%)" offset="0.453125"/><stop stop-opacity="1" stop-color="rgb(53.125%, 31.436157%, 87.063599%)" offset="0.457031"/><stop stop-opacity="1" stop-color="rgb(52.638245%, 31.70929%, 87.516785%)" offset="0.460937"/><stop stop-opacity="1" stop-color="rgb(52.151489%, 31.980896%, 87.968445%)" offset="0.464844"/><stop stop-opacity="1" stop-color="rgb(51.664734%, 32.254028%, 88.421631%)" offset="0.46875"/><stop stop-opacity="1" stop-color="rgb(51.177979%, 32.525635%, 88.873291%)" offset="0.472656"/><stop stop-opacity="1" stop-color="rgb(50.691223%, 32.798767%, 89.326477%)" offset="0.476562"/><stop stop-opacity="1" stop-color="rgb(50.204468%, 33.070374%, 89.779663%)" offset="0.480469"/><stop stop-opacity="1" stop-color="rgb(49.717712%, 33.343506%, 90.232849%)" offset="0.484375"/><stop stop-opacity="1" stop-color="rgb(49.230957%, 33.615112%, 90.684509%)" offset="0.488281"/><stop stop-opacity="1" stop-color="rgb(48.744202%, 33.888245%, 91.137695%)" offset="0.492187"/><stop stop-opacity="1" stop-color="rgb(48.257446%, 34.159851%, 91.590881%)" offset="0.496094"/><stop stop-opacity="1" stop-color="rgb(47.770691%, 34.432983%, 92.044067%)" offset="0.5"/><stop stop-opacity="1" stop-color="rgb(47.283936%, 34.70459%, 92.495728%)" offset="0.503906"/><stop stop-opacity="1" stop-color="rgb(46.798706%, 34.977722%, 92.948914%)" offset="0.507812"/><stop stop-opacity="1" stop-color="rgb(46.311951%, 35.249329%, 93.400574%)" offset="0.511719"/><stop stop-opacity="1" stop-color="rgb(45.825195%, 35.522461%, 93.85376%)" offset="0.515625"/><stop stop-opacity="1" stop-color="rgb(45.33844%, 35.794067%, 94.306946%)" offset="0.519531"/><stop stop-opacity="1" stop-color="rgb(44.851685%, 36.0672%, 94.760132%)" offset="0.523438"/><stop stop-opacity="1" stop-color="rgb(44.364929%, 36.338806%, 95.211792%)" offset="0.527344"/><stop stop-opacity="1" stop-color="rgb(43.878174%, 36.611938%, 95.664978%)" offset="0.53125"/><stop stop-opacity="1" stop-color="rgb(43.391418%, 36.883545%, 96.118164%)" offset="0.535156"/><stop stop-opacity="1" stop-color="rgb(42.904663%, 37.156677%, 96.57135%)" offset="0.539062"/><stop stop-opacity="1" stop-color="rgb(42.417908%, 37.428284%, 97.02301%)" offset="0.542969"/><stop stop-opacity="1" stop-color="rgb(41.931152%, 37.701416%, 97.476196%)" offset="0.546875"/><stop stop-opacity="1" stop-color="rgb(41.444397%, 37.973022%, 97.927856%)" offset="0.550781"/><stop stop-opacity="1" stop-color="rgb(40.957642%, 38.246155%, 98.381042%)" offset="0.554687"/><stop stop-opacity="1" stop-color="rgb(40.470886%, 38.517761%, 98.834229%)" offset="0.558594"/><stop stop-opacity="1" stop-color="rgb(39.984131%, 38.790894%, 99.287415%)" offset="0.5625"/><stop stop-opacity="1" stop-color="rgb(39.756775%, 39.079285%, 99.40033%)" offset="0.566406"/><stop stop-opacity="1" stop-color="rgb(39.530945%, 39.369202%, 99.514771%)" offset="0.570312"/><stop stop-opacity="1" stop-color="rgb(40.260315%, 39.72168%, 98.377991%)" offset="0.574219"/><stop stop-opacity="1" stop-color="rgb(40.989685%, 40.074158%, 97.241211%)" offset="0.578125"/><stop stop-opacity="1" stop-color="rgb(41.719055%, 40.426636%, 96.104431%)" offset="0.582031"/><stop stop-opacity="1" stop-color="rgb(42.449951%, 40.78064%, 94.969177%)" offset="0.585938"/><stop stop-opacity="1" stop-color="rgb(43.179321%, 41.133118%, 93.832397%)" offset="0.589844"/><stop stop-opacity="1" stop-color="rgb(43.908691%, 41.485596%, 92.695618%)" offset="0.59375"/><stop stop-opacity="1" stop-color="rgb(44.638062%, 41.838074%, 91.558838%)" offset="0.597656"/><stop stop-opacity="1" stop-color="rgb(45.368958%, 42.190552%, 90.423584%)" offset="0.601562"/><stop stop-opacity="1" stop-color="rgb(46.098328%, 42.54303%, 89.286804%)" offset="0.605469"/><stop stop-opacity="1" stop-color="rgb(46.829224%, 42.895508%, 88.15155%)" offset="0.609375"/><stop stop-opacity="1" stop-color="rgb(47.558594%, 43.247986%, 87.014771%)" offset="0.613281"/><stop stop-opacity="1" stop-color="rgb(48.287964%, 43.600464%, 85.877991%)" offset="0.617187"/><stop stop-opacity="1" stop-color="rgb(49.017334%, 43.952942%, 84.741211%)" offset="0.621094"/><stop stop-opacity="1" stop-color="rgb(49.74823%, 44.30542%, 83.605957%)" offset="0.625"/><stop stop-opacity="1" stop-color="rgb(50.4776%, 44.657898%, 82.469177%)" offset="0.628906"/><stop stop-opacity="1" stop-color="rgb(51.20697%, 45.010376%, 81.332397%)" offset="0.632812"/><stop stop-opacity="1" stop-color="rgb(51.93634%, 45.362854%, 80.195618%)" offset="0.636719"/><stop stop-opacity="1" stop-color="rgb(52.667236%, 45.716858%, 79.060364%)" offset="0.640625"/><stop stop-opacity="1" stop-color="rgb(53.396606%, 46.069336%, 77.923584%)" offset="0.644531"/><stop stop-opacity="1" stop-color="rgb(54.125977%, 46.421814%, 76.78833%)" offset="0.648437"/><stop stop-opacity="1" stop-color="rgb(54.855347%, 46.774292%, 75.65155%)" offset="0.652344"/><stop stop-opacity="1" stop-color="rgb(55.586243%, 47.12677%, 74.514771%)" offset="0.65625"/><stop stop-opacity="1" stop-color="rgb(56.315613%, 47.479248%, 73.377991%)" offset="0.660156"/><stop stop-opacity="1" stop-color="rgb(57.044983%, 47.831726%, 72.242737%)" offset="0.664062"/><stop stop-opacity="1" stop-color="rgb(57.774353%, 48.184204%, 71.105957%)" offset="0.667969"/><stop stop-opacity="1" stop-color="rgb(58.505249%, 48.536682%, 69.969177%)" offset="0.671875"/><stop stop-opacity="1" stop-color="rgb(59.234619%, 48.88916%, 68.832397%)" offset="0.675781"/><stop stop-opacity="1" stop-color="rgb(59.963989%, 49.241638%, 67.697144%)" offset="0.679687"/><stop stop-opacity="1" stop-color="rgb(60.693359%, 49.594116%, 66.560364%)" offset="0.683594"/><stop stop-opacity="1" stop-color="rgb(61.424255%, 49.946594%, 65.42511%)" offset="0.6875"/><stop stop-opacity="1" stop-color="rgb(62.153625%, 50.299072%, 64.28833%)" offset="0.691406"/><stop stop-opacity="1" stop-color="rgb(62.882996%, 50.653076%, 63.15155%)" offset="0.695312"/><stop stop-opacity="1" stop-color="rgb(63.612366%, 51.005554%, 62.014771%)" offset="0.699219"/><stop stop-opacity="1" stop-color="rgb(64.343262%, 51.358032%, 60.879517%)" offset="0.703125"/><stop stop-opacity="1" stop-color="rgb(65.072632%, 51.71051%, 59.742737%)" offset="0.707031"/><stop stop-opacity="1" stop-color="rgb(65.803528%, 52.062988%, 58.605957%)" offset="0.710937"/><stop stop-opacity="1" stop-color="rgb(66.532898%, 52.415466%, 57.469177%)" offset="0.714844"/><stop stop-opacity="1" stop-color="rgb(67.262268%, 52.767944%, 56.333923%)" offset="0.71875"/><stop stop-opacity="1" stop-color="rgb(67.991638%, 53.120422%, 55.197144%)" offset="0.722656"/><stop stop-opacity="1" stop-color="rgb(68.722534%, 53.4729%, 54.06189%)" offset="0.726562"/><stop stop-opacity="1" stop-color="rgb(69.451904%, 53.825378%, 52.92511%)" offset="0.730469"/><stop stop-opacity="1" stop-color="rgb(70.181274%, 54.177856%, 51.78833%)" offset="0.734375"/><stop stop-opacity="1" stop-color="rgb(70.910645%, 54.530334%, 50.65155%)" offset="0.738281"/><stop stop-opacity="1" stop-color="rgb(71.641541%, 54.882812%, 49.516296%)" offset="0.742188"/><stop stop-opacity="1" stop-color="rgb(72.370911%, 55.235291%, 48.379517%)" offset="0.746094"/><stop stop-opacity="1" stop-color="rgb(73.100281%, 55.589294%, 47.242737%)" offset="0.75"/><stop stop-opacity="1" stop-color="rgb(73.829651%, 55.941772%, 46.105957%)" offset="0.753906"/><stop stop-opacity="1" stop-color="rgb(74.560547%, 56.29425%, 44.970703%)" offset="0.757812"/><stop stop-opacity="1" stop-color="rgb(75.289917%, 56.646729%, 43.833923%)" offset="0.761719"/><stop stop-opacity="1" stop-color="rgb(76.019287%, 56.999207%, 42.698669%)" offset="0.765625"/><stop stop-opacity="1" stop-color="rgb(76.748657%, 57.351685%, 41.56189%)" offset="0.769531"/><stop stop-opacity="1" stop-color="rgb(77.479553%, 57.704163%, 40.42511%)" offset="0.773438"/><stop stop-opacity="1" stop-color="rgb(78.208923%, 58.056641%, 39.28833%)" offset="0.777344"/><stop stop-opacity="1" stop-color="rgb(78.938293%, 58.409119%, 38.153076%)" offset="0.78125"/><stop stop-opacity="1" stop-color="rgb(79.667664%, 58.761597%, 37.016296%)" offset="0.785156"/><stop stop-opacity="1" stop-color="rgb(80.39856%, 59.114075%, 35.879517%)" offset="0.789062"/><stop stop-opacity="1" stop-color="rgb(81.12793%, 59.466553%, 34.742737%)" offset="0.792969"/><stop stop-opacity="1" stop-color="rgb(81.8573%, 59.820557%, 33.607483%)" offset="0.796875"/><stop stop-opacity="1" stop-color="rgb(82.58667%, 60.173035%, 32.470703%)" offset="0.800781"/><stop stop-opacity="1" stop-color="rgb(83.317566%, 60.525513%, 31.335449%)" offset="0.804688"/><stop stop-opacity="1" stop-color="rgb(84.046936%, 60.877991%, 30.198669%)" offset="0.808594"/><stop stop-opacity="1" stop-color="rgb(84.777832%, 61.230469%, 29.06189%)" offset="0.8125"/><stop stop-opacity="1" stop-color="rgb(85.507202%, 61.582947%, 27.92511%)" offset="0.816406"/><stop stop-opacity="1" stop-color="rgb(86.236572%, 61.935425%, 26.789856%)" offset="0.820313"/><stop stop-opacity="1" stop-color="rgb(86.965942%, 62.287903%, 25.653076%)" offset="0.824219"/><stop stop-opacity="1" stop-color="rgb(87.696838%, 62.640381%, 24.516296%)" offset="0.828125"/><stop stop-opacity="1" stop-color="rgb(88.426208%, 62.992859%, 23.379517%)" offset="0.832031"/><stop stop-opacity="1" stop-color="rgb(89.155579%, 63.345337%, 22.244263%)" offset="0.835938"/><stop stop-opacity="1" stop-color="rgb(89.884949%, 63.697815%, 21.107483%)" offset="0.839844"/><stop stop-opacity="1" stop-color="rgb(90.615845%, 64.050293%, 19.972229%)" offset="0.84375"/><stop stop-opacity="1" stop-color="rgb(91.345215%, 64.402771%, 18.835449%)" offset="0.847656"/><stop stop-opacity="1" stop-color="rgb(92.074585%, 64.756775%, 17.698669%)" offset="0.851562"/><stop stop-opacity="1" stop-color="rgb(92.803955%, 65.109253%, 16.56189%)" offset="0.855469"/><stop stop-opacity="1" stop-color="rgb(93.534851%, 65.461731%, 15.426636%)" offset="0.859375"/><stop stop-opacity="1" stop-color="rgb(94.264221%, 65.814209%, 14.289856%)" offset="0.863281"/><stop stop-opacity="1" stop-color="rgb(94.993591%, 66.166687%, 13.153076%)" offset="0.867187"/><stop stop-opacity="1" stop-color="rgb(95.722961%, 66.519165%, 12.016296%)" offset="0.871094"/><stop stop-opacity="1" stop-color="rgb(96.453857%, 66.871643%, 10.881042%)" offset="0.875"/><stop stop-opacity="1" stop-color="rgb(97.050476%, 67.160034%, 9.950256%)" offset="0.878906"/><stop stop-opacity="1" stop-color="rgb(97.648621%, 67.449951%, 9.01947%)" offset="0.882812"/><stop stop-opacity="1" stop-color="rgb(97.648621%, 67.449951%, 9.01947%)" offset="0.890625"/><stop stop-opacity="1" stop-color="rgb(97.648621%, 67.449951%, 9.01947%)" offset="0.90625"/><stop stop-opacity="1" stop-color="rgb(97.648621%, 67.449951%, 9.01947%)" offset="0.9375"/><stop stop-opacity="1" stop-color="rgb(97.648621%, 67.449951%, 9.01947%)" offset="1"/></linearGradient><clipPath id="068866956c"><rect x="0" width="916" y="0" height="169"/></clipPath><clipPath id="7eb2143b1a"><rect x="0" width="613" y="0" height="141"/></clipPath></defs><g clip-path="url(#20e3f31a22)"><g clip-path="url(#ff5ba5505c)"><path fill="url(#4b2dbeaefa)" d="M 522.378906 822.847656 L 365.460938 523.4375 L 66.054688 680.355469 L 222.972656 979.765625 Z M 522.378906 822.847656 " fill-rule="nonzero"/></g></g><path fill="#ff0091" d="M 350.941406 665.710938 C 350.941406 681.820312 364.003906 694.875 380.109375 694.875 C 396.214844 694.875 409.277344 681.820312 409.277344 665.710938 C 409.277344 649.597656 396.21875 636.542969 380.109375 636.542969 C 364 636.542969 350.941406 649.597656 350.941406 665.710938 " fill-opacity="1" fill-rule="nonzero"/><path fill="#e6ff00" d="M 350.941406 837.496094 C 350.941406 853.605469 364.003906 866.660156 380.109375 866.660156 C 396.214844 866.660156 409.277344 853.605469 409.277344 837.496094 C 409.277344 821.382812 396.21875 808.328125 380.109375 808.328125 C 364 808.328125 350.941406 821.382812 350.941406 837.496094 " fill-opacity="1" fill-rule="nonzero"/><path fill="#6464ff" d="M 179.15625 665.710938 C 179.15625 681.820312 192.21875 694.875 208.324219 694.875 C 224.429688 694.875 237.492188 681.820312 237.492188 665.710938 C 237.492188 649.597656 224.433594 636.542969 208.324219 636.542969 C 192.214844 636.542969 179.15625 649.597656 179.15625 665.710938 " fill-opacity="1" fill-rule="nonzero"/><path fill="#fb8800" d="M 179.15625 837.496094 C 179.15625 853.605469 192.21875 866.660156 208.324219 866.660156 C 224.429688 866.660156 237.492188 853.605469 237.492188 837.496094 C 237.492188 821.382812 224.429688 808.328125 208.324219 808.328125 C 192.21875 808.328125 179.15625 821.382812 179.15625 837.496094 " fill-opacity="1" fill-rule="nonzero"/><g transform="matrix(1, 0, 0, 1, 436, 608)"><g clip-path="url(#068866956c)"><g fill="#050a30" fill-opacity="1"><g transform="translate(0.255045, 134.611474)"><g><path d="M 45.390625 -98.78125 L 65.296875 -98.78125 L 107.328125 0 L 84.765625 0 L 75.796875 -22 L 34.328125 -22 L 25.359375 0 L 3.359375 0 Z M 68.09375 -41.046875 L 55.0625 -72.859375 L 42.03125 -41.046875 Z M 68.09375 -41.046875 "/></g></g></g><g fill="#050a30" fill-opacity="1"><g transform="translate(98.607631, 134.611474)"><g><path d="M 12.75 -98.078125 L 34.328125 -98.078125 L 34.328125 0 L 12.75 0 Z M 12.75 -98.078125 "/></g></g></g><g fill="#050a30" fill-opacity="1"><g transform="translate(133.352756, 134.611474)"><g/></g></g><g fill="#050a30" fill-opacity="1"><g transform="translate(163.054115, 134.611474)"><g><path d="M 57.71875 1.6875 C 50.53125 1.6875 43.851562 0.378906 37.6875 -2.234375 C 31.519531 -4.859375 26.191406 -8.429688 21.703125 -12.953125 C 17.222656 -17.484375 13.722656 -22.832031 11.203125 -29 C 8.679688 -35.164062 7.421875 -41.753906 7.421875 -48.765625 L 7.421875 -49.03125 C 7.421875 -56.039062 8.679688 -62.601562 11.203125 -68.71875 C 13.722656 -74.84375 17.222656 -80.210938 21.703125 -84.828125 C 26.191406 -89.453125 31.566406 -93.097656 37.828125 -95.765625 C 44.085938 -98.429688 51 -99.765625 58.5625 -99.765625 C 63.144531 -99.765625 67.328125 -99.390625 71.109375 -98.640625 C 74.890625 -97.890625 78.320312 -96.859375 81.40625 -95.546875 C 84.488281 -94.242188 87.335938 -92.65625 89.953125 -90.78125 C 92.566406 -88.914062 94.992188 -86.863281 97.234375 -84.625 L 83.5 -68.796875 C 79.675781 -72.253906 75.773438 -74.960938 71.796875 -76.921875 C 67.828125 -78.878906 63.367188 -79.859375 58.421875 -79.859375 C 54.316406 -79.859375 50.507812 -79.0625 47 -77.46875 C 43.5 -75.882812 40.488281 -73.691406 37.96875 -70.890625 C 35.445312 -68.085938 33.484375 -64.84375 32.078125 -61.15625 C 30.679688 -57.46875 29.984375 -53.519531 29.984375 -49.3125 L 29.984375 -49.03125 C 29.984375 -44.832031 30.679688 -40.863281 32.078125 -37.125 C 33.484375 -33.394531 35.421875 -30.128906 37.890625 -27.328125 C 40.367188 -24.523438 43.359375 -22.304688 46.859375 -20.671875 C 50.367188 -19.035156 54.222656 -18.21875 58.421875 -18.21875 C 64.023438 -18.21875 68.765625 -19.242188 72.640625 -21.296875 C 76.523438 -23.347656 80.378906 -26.148438 84.203125 -29.703125 L 97.9375 -15.828125 C 95.414062 -13.117188 92.800781 -10.691406 90.09375 -8.546875 C 87.382812 -6.398438 84.414062 -4.554688 81.1875 -3.015625 C 77.96875 -1.472656 74.441406 -0.304688 70.609375 0.484375 C 66.785156 1.285156 62.488281 1.6875 57.71875 1.6875 Z M 57.71875 1.6875 "/></g></g></g><g fill="#050a30" fill-opacity="1"><g transform="translate(254.121249, 134.611474)"><g><path d="M 11.765625 -98.078125 L 33.34375 -98.078125 L 33.34375 -19.609375 L 82.25 -19.609375 L 82.25 0 L 11.765625 0 Z M 11.765625 -98.078125 "/></g></g></g><g fill="#050a30" fill-opacity="1"><g transform="translate(328.515951, 134.611474)"><g><path d="M 12.75 -98.078125 L 34.328125 -98.078125 L 34.328125 0 L 12.75 0 Z M 12.75 -98.078125 "/></g></g></g><g fill="#050a30" fill-opacity="1"><g transform="translate(363.26109, 134.611474)"><g><path d="M 11.765625 -98.078125 L 31.671875 -98.078125 L 77.625 -37.6875 L 77.625 -98.078125 L 98.921875 -98.078125 L 98.921875 0 L 80.5625 0 L 33.0625 -62.34375 L 33.0625 0 L 11.765625 0 Z M 11.765625 -98.078125 "/></g></g></g><g fill="#050a30" fill-opacity="1"><g transform="translate(461.613662, 134.611474)"><g><path d="M 11.765625 -98.078125 L 86.453125 -98.078125 L 86.453125 -78.46875 L 33.34375 -78.46875 L 33.34375 -57.578125 L 80.140625 -57.578125 L 80.140625 -37.96875 L 33.34375 -37.96875 L 33.34375 0 L 11.765625 0 Z M 11.765625 -98.078125 "/></g></g></g><g fill="#050a30" fill-opacity="1"><g transform="translate(541.192223, 134.611474)"><g><path d="M 59.40625 1.6875 C 51.84375 1.6875 44.882812 0.351562 38.53125 -2.3125 C 32.175781 -4.976562 26.6875 -8.570312 22.0625 -13.09375 C 17.4375 -17.625 13.835938 -22.945312 11.265625 -29.0625 C 8.703125 -35.1875 7.421875 -41.753906 7.421875 -48.765625 L 7.421875 -49.03125 C 7.421875 -56.039062 8.726562 -62.601562 11.34375 -68.71875 C 13.957031 -74.84375 17.578125 -80.210938 22.203125 -84.828125 C 26.828125 -89.453125 32.335938 -93.097656 38.734375 -95.765625 C 45.140625 -98.429688 52.125 -99.765625 59.6875 -99.765625 C 67.25 -99.765625 74.207031 -98.429688 80.5625 -95.765625 C 86.914062 -93.097656 92.40625 -89.5 97.03125 -84.96875 C 101.65625 -80.445312 105.25 -75.125 107.8125 -69 C 110.382812 -62.882812 111.671875 -56.320312 111.671875 -49.3125 L 111.671875 -49.03125 C 111.671875 -42.03125 110.363281 -35.46875 107.75 -29.34375 C 105.132812 -23.226562 101.515625 -17.859375 96.890625 -13.234375 C 92.265625 -8.617188 86.75 -4.976562 80.34375 -2.3125 C 73.945312 0.351562 66.96875 1.6875 59.40625 1.6875 Z M 59.6875 -18.21875 C 63.976562 -18.21875 67.945312 -19.007812 71.59375 -20.59375 C 75.238281 -22.1875 78.34375 -24.382812 80.90625 -27.1875 C 83.476562 -29.988281 85.488281 -33.234375 86.9375 -36.921875 C 88.382812 -40.609375 89.109375 -44.554688 89.109375 -48.765625 L 89.109375 -49.03125 C 89.109375 -53.238281 88.382812 -57.207031 86.9375 -60.9375 C 85.488281 -64.675781 83.429688 -67.945312 80.765625 -70.75 C 78.109375 -73.550781 74.957031 -75.769531 71.3125 -77.40625 C 67.664062 -79.039062 63.695312 -79.859375 59.40625 -79.859375 C 55.019531 -79.859375 51.023438 -79.0625 47.421875 -77.46875 C 43.828125 -75.882812 40.742188 -73.691406 38.171875 -70.890625 C 35.609375 -68.085938 33.601562 -64.84375 32.15625 -61.15625 C 30.707031 -57.46875 29.984375 -53.519531 29.984375 -49.3125 L 29.984375 -49.03125 C 29.984375 -44.832031 30.707031 -40.863281 32.15625 -37.125 C 33.601562 -33.394531 35.65625 -30.128906 38.3125 -27.328125 C 40.976562 -24.523438 44.109375 -22.304688 47.703125 -20.671875 C 51.296875 -19.035156 55.289062 -18.21875 59.6875 -18.21875 Z M 59.6875 -18.21875 "/></g></g></g><g fill="#050a30" fill-opacity="1"><g transform="translate(647.95109, 134.611474)"><g><path d="M 11.765625 -98.078125 L 56.609375 -98.078125 C 69.023438 -98.078125 78.550781 -94.757812 85.1875 -88.125 C 90.789062 -82.519531 93.59375 -75.050781 93.59375 -65.71875 L 93.59375 -65.4375 C 93.59375 -57.488281 91.65625 -51.015625 87.78125 -46.015625 C 83.90625 -41.023438 78.835938 -37.363281 72.578125 -35.03125 L 96.53125 0 L 71.3125 0 L 50.296875 -31.390625 L 33.34375 -31.390625 L 33.34375 0 L 11.765625 0 Z M 55.203125 -50.4375 C 60.523438 -50.4375 64.609375 -51.695312 67.453125 -54.21875 C 70.304688 -56.738281 71.734375 -60.101562 71.734375 -64.3125 L 71.734375 -64.59375 C 71.734375 -69.257812 70.238281 -72.757812 67.25 -75.09375 C 64.257812 -77.425781 60.101562 -78.59375 54.78125 -78.59375 L 33.34375 -78.59375 L 33.34375 -50.4375 Z M 55.203125 -50.4375 "/></g></g></g><g fill="#050a30" fill-opacity="1"><g transform="translate(736.916697, 134.611474)"><g><path d="M 57.71875 1.6875 C 50.53125 1.6875 43.851562 0.378906 37.6875 -2.234375 C 31.519531 -4.859375 26.191406 -8.429688 21.703125 -12.953125 C 17.222656 -17.484375 13.722656 -22.832031 11.203125 -29 C 8.679688 -35.164062 7.421875 -41.753906 7.421875 -48.765625 L 7.421875 -49.03125 C 7.421875 -56.039062 8.679688 -62.601562 11.203125 -68.71875 C 13.722656 -74.84375 17.222656 -80.210938 21.703125 -84.828125 C 26.191406 -89.453125 31.566406 -93.097656 37.828125 -95.765625 C 44.085938 -98.429688 51 -99.765625 58.5625 -99.765625 C 63.144531 -99.765625 67.328125 -99.390625 71.109375 -98.640625 C 74.890625 -97.890625 78.320312 -96.859375 81.40625 -95.546875 C 84.488281 -94.242188 87.335938 -92.65625 89.953125 -90.78125 C 92.566406 -88.914062 94.992188 -86.863281 97.234375 -84.625 L 83.5 -68.796875 C 79.675781 -72.253906 75.773438 -74.960938 71.796875 -76.921875 C 67.828125 -78.878906 63.367188 -79.859375 58.421875 -79.859375 C 54.316406 -79.859375 50.507812 -79.0625 47 -77.46875 C 43.5 -75.882812 40.488281 -73.691406 37.96875 -70.890625 C 35.445312 -68.085938 33.484375 -64.84375 32.078125 -61.15625 C 30.679688 -57.46875 29.984375 -53.519531 29.984375 -49.3125 L 29.984375 -49.03125 C 29.984375 -44.832031 30.679688 -40.863281 32.078125 -37.125 C 33.484375 -33.394531 35.421875 -30.128906 37.890625 -27.328125 C 40.367188 -24.523438 43.359375 -22.304688 46.859375 -20.671875 C 50.367188 -19.035156 54.222656 -18.21875 58.421875 -18.21875 C 64.023438 -18.21875 68.765625 -19.242188 72.640625 -21.296875 C 76.523438 -23.347656 80.378906 -26.148438 84.203125 -29.703125 L 97.9375 -15.828125 C 95.414062 -13.117188 92.800781 -10.691406 90.09375 -8.546875 C 87.382812 -6.398438 84.414062 -4.554688 81.1875 -3.015625 C 77.96875 -1.472656 74.441406 -0.304688 70.609375 0.484375 C 66.785156 1.285156 62.488281 1.6875 57.71875 1.6875 Z M 57.71875 1.6875 "/></g></g></g><g fill="#050a30" fill-opacity="1"><g transform="translate(827.983818, 134.611474)"><g><path d="M 11.765625 -98.078125 L 85.75 -98.078125 L 85.75 -78.875 L 33.203125 -78.875 L 33.203125 -58.984375 L 79.4375 -58.984375 L 79.4375 -39.796875 L 33.203125 -39.796875 L 33.203125 -19.1875 L 86.453125 -19.1875 L 86.453125 0 L 11.765625 0 Z M 11.765625 -98.078125 "/></g></g></g></g></g><g transform="matrix(1, 0, 0, 1, 435, 751)"><g clip-path="url(#7eb2143b1a)"><g fill="#050a30" fill-opacity="1"><g transform="translate(1.178122, 111.826864)"><g><path d="M 11.515625 -81.421875 L 41.984375 -81.421875 C 46.554688 -81.421875 50.722656 -80.816406 54.484375 -79.609375 C 58.253906 -78.410156 61.472656 -76.707031 64.140625 -74.5 C 66.816406 -72.289062 68.875 -69.59375 70.3125 -66.40625 C 71.75 -63.226562 72.46875 -59.625 72.46875 -55.59375 L 72.46875 -55.359375 C 72.46875 -50.941406 71.613281 -47.082031 69.90625 -43.78125 C 68.195312 -40.488281 65.890625 -37.71875 62.984375 -35.46875 C 60.078125 -33.226562 56.679688 -31.546875 52.796875 -30.421875 C 48.921875 -29.296875 44.816406 -28.734375 40.484375 -28.734375 L 20.703125 -28.734375 L 20.703125 0 L 11.515625 0 Z M 40.828125 -37.109375 C 44.160156 -37.109375 47.203125 -37.53125 49.953125 -38.375 C 52.703125 -39.226562 55.066406 -40.453125 57.046875 -42.046875 C 59.023438 -43.640625 60.535156 -45.519531 61.578125 -47.6875 C 62.628906 -49.851562 63.15625 -52.296875 63.15625 -55.015625 L 63.15625 -55.25 C 63.15625 -61.0625 61.15625 -65.457031 57.15625 -68.4375 C 53.164062 -71.425781 47.878906 -72.921875 41.296875 -72.921875 L 20.703125 -72.921875 L 20.703125 -37.109375 Z M 40.828125 -37.109375 "/></g></g></g><g fill="#050a30" fill-opacity="1"><g transform="translate(73.167265, 111.826864)"><g><path d="M 41.640625 -82 L 50.25 -82 L 87.34375 0 L 77.46875 0 L 67.921875 -21.515625 L 23.609375 -21.515625 L 13.953125 0 L 4.53125 0 Z M 64.328125 -29.78125 L 45.828125 -71.296875 L 27.21875 -29.78125 Z M 64.328125 -29.78125 "/></g></g></g><g fill="#050a30" fill-opacity="1"><g transform="translate(159.345109, 111.826864)"><g><path d="M 11.515625 -81.421875 L 46.53125 -81.421875 C 51.5625 -81.421875 56.035156 -80.703125 59.953125 -79.265625 C 63.867188 -77.828125 67.109375 -75.832031 69.671875 -73.28125 C 71.691406 -71.257812 73.242188 -68.890625 74.328125 -66.171875 C 75.410156 -63.460938 75.953125 -60.476562 75.953125 -57.21875 L 75.953125 -57 C 75.953125 -53.582031 75.410156 -50.535156 74.328125 -47.859375 C 73.242188 -45.179688 71.710938 -42.851562 69.734375 -40.875 C 67.753906 -38.90625 65.40625 -37.28125 62.6875 -36 C 59.976562 -34.71875 57.035156 -33.804688 53.859375 -33.265625 L 78.859375 0 L 67.578125 0 L 43.96875 -31.640625 L 20.703125 -31.640625 L 20.703125 0 L 11.515625 0 Z M 45.703125 -39.890625 C 48.734375 -39.890625 51.523438 -40.273438 54.078125 -41.046875 C 56.640625 -41.828125 58.847656 -42.9375 60.703125 -44.375 C 62.566406 -45.8125 64.019531 -47.554688 65.0625 -49.609375 C 66.113281 -51.660156 66.640625 -54.003906 66.640625 -56.640625 L 66.640625 -56.875 C 66.640625 -61.914062 64.816406 -65.847656 61.171875 -68.671875 C 57.535156 -71.503906 52.421875 -72.921875 45.828125 -72.921875 L 20.703125 -72.921875 L 20.703125 -39.890625 Z M 45.703125 -39.890625 "/></g></g></g><g fill="#050a30" fill-opacity="1"><g transform="translate(237.730783, 111.826864)"><g><path d="M 32.6875 -72.921875 L 5.234375 -72.921875 L 5.234375 -81.421875 L 69.328125 -81.421875 L 69.328125 -72.921875 L 41.875 -72.921875 L 41.875 0 L 32.6875 0 Z M 32.6875 -72.921875 "/></g></g></g><g fill="#050a30" fill-opacity="1"><g transform="translate(306.579828, 111.826864)"><g><path d="M 11.515625 -81.421875 L 20.125 -81.421875 L 71.421875 -16.171875 L 71.421875 -81.421875 L 80.375 -81.421875 L 80.375 0 L 73.046875 0 L 20.46875 -66.765625 L 20.46875 0 L 11.515625 0 Z M 11.515625 -81.421875 "/></g></g></g><g fill="#050a30" fill-opacity="1"><g transform="translate(392.757645, 111.826864)"><g><path d="M 11.515625 -81.421875 L 70.375 -81.421875 L 70.375 -73.046875 L 20.703125 -73.046875 L 20.703125 -45.25 L 65.140625 -45.25 L 65.140625 -36.875 L 20.703125 -36.875 L 20.703125 -8.375 L 70.953125 -8.375 L 70.953125 0 L 11.515625 0 Z M 11.515625 -81.421875 "/></g></g></g><g fill="#050a30" fill-opacity="1"><g transform="translate(464.979407, 111.826864)"><g><path d="M 11.515625 -81.421875 L 46.53125 -81.421875 C 51.5625 -81.421875 56.035156 -80.703125 59.953125 -79.265625 C 63.867188 -77.828125 67.109375 -75.832031 69.671875 -73.28125 C 71.691406 -71.257812 73.242188 -68.890625 74.328125 -66.171875 C 75.410156 -63.460938 75.953125 -60.476562 75.953125 -57.21875 L 75.953125 -57 C 75.953125 -53.582031 75.410156 -50.535156 74.328125 -47.859375 C 73.242188 -45.179688 71.710938 -42.851562 69.734375 -40.875 C 67.753906 -38.90625 65.40625 -37.28125 62.6875 -36 C 59.976562 -34.71875 57.035156 -33.804688 53.859375 -33.265625 L 78.859375 0 L 67.578125 0 L 43.96875 -31.640625 L 20.703125 -31.640625 L 20.703125 0 L 11.515625 0 Z M 45.703125 -39.890625 C 48.734375 -39.890625 51.523438 -40.273438 54.078125 -41.046875 C 56.640625 -41.828125 58.847656 -42.9375 60.703125 -44.375 C 62.566406 -45.8125 64.019531 -47.554688 65.0625 -49.609375 C 66.113281 -51.660156 66.640625 -54.003906 66.640625 -56.640625 L 66.640625 -56.875 C 66.640625 -61.914062 64.816406 -65.847656 61.171875 -68.671875 C 57.535156 -71.503906 52.421875 -72.921875 45.828125 -72.921875 L 20.703125 -72.921875 L 20.703125 -39.890625 Z M 45.703125 -39.890625 "/></g></g></g><g fill="#050a30" fill-opacity="1"><g transform="translate(543.365107, 111.826864)"><g><path d="M 39.4375 1.15625 C 32.914062 1.15625 26.960938 0.09375 21.578125 -2.03125 C 16.191406 -4.164062 11.054688 -7.441406 6.171875 -11.859375 L 11.859375 -18.609375 C 16.128906 -14.734375 20.429688 -11.84375 24.765625 -9.9375 C 29.109375 -8.039062 34.113281 -7.09375 39.78125 -7.09375 C 45.28125 -7.09375 49.675781 -8.390625 52.96875 -10.984375 C 56.269531 -13.585938 57.921875 -16.90625 57.921875 -20.9375 L 57.921875 -21.171875 C 57.921875 -23.023438 57.609375 -24.707031 56.984375 -26.21875 C 56.367188 -27.738281 55.285156 -29.117188 53.734375 -30.359375 C 52.179688 -31.597656 50.03125 -32.722656 47.28125 -33.734375 C 44.53125 -34.742188 41.019531 -35.710938 36.75 -36.640625 C 32.101562 -37.648438 28.050781 -38.8125 24.59375 -40.125 C 21.144531 -41.445312 18.296875 -43.035156 16.046875 -44.890625 C 13.796875 -46.753906 12.128906 -48.925781 11.046875 -51.40625 C 9.960938 -53.882812 9.421875 -56.796875 9.421875 -60.140625 L 9.421875 -60.359375 C 9.421875 -63.546875 10.078125 -66.492188 11.390625 -69.203125 C 12.710938 -71.921875 14.578125 -74.265625 16.984375 -76.234375 C 19.390625 -78.210938 22.21875 -79.765625 25.46875 -80.890625 C 28.726562 -82.015625 32.296875 -82.578125 36.171875 -82.578125 C 42.140625 -82.578125 47.351562 -81.742188 51.8125 -80.078125 C 56.269531 -78.410156 60.59375 -75.910156 64.78125 -72.578125 L 59.4375 -65.484375 C 55.632812 -68.585938 51.8125 -70.835938 47.96875 -72.234375 C 44.132812 -73.628906 40.125 -74.328125 35.9375 -74.328125 C 30.59375 -74.328125 26.367188 -73.066406 23.265625 -70.546875 C 20.160156 -68.023438 18.609375 -64.90625 18.609375 -61.1875 L 18.609375 -60.953125 C 18.609375 -59.015625 18.914062 -57.285156 19.53125 -55.765625 C 20.15625 -54.253906 21.28125 -52.859375 22.90625 -51.578125 C 24.539062 -50.304688 26.789062 -49.144531 29.65625 -48.09375 C 32.53125 -47.050781 36.210938 -46.0625 40.703125 -45.125 C 49.773438 -43.113281 56.460938 -40.320312 60.765625 -36.75 C 65.078125 -33.1875 67.234375 -28.300781 67.234375 -22.09375 L 67.234375 -21.859375 C 67.234375 -18.367188 66.535156 -15.207031 65.140625 -12.375 C 63.742188 -9.550781 61.820312 -7.128906 59.375 -5.109375 C 56.9375 -3.097656 54.007812 -1.550781 50.59375 -0.46875 C 47.1875 0.613281 43.46875 1.15625 39.4375 1.15625 Z M 39.4375 1.15625 "/></g></g></g></g></g></svg>